<svg width="12" height="12" viewBox="0 0 12 12" fill="none" xmlns="http://www.w3.org/2000/svg">
<path d="M11.0808 10.2525L9.0975 8.275C9.73741 7.45977 10.0846 6.45305 10.0833 5.41667C10.0833 4.49369 9.80964 3.59144 9.29686 2.82401C8.78408 2.05658 8.05525 1.45844 7.20252 1.10523C6.3498 0.752022 5.41149 0.659606 4.50625 0.839671C3.601 1.01974 2.76948 1.46419 2.11684 2.11684C1.46419 2.76948 1.01974 3.601 0.839671 4.50625C0.659606 5.41149 0.752022 6.3498 1.10523 7.20252C1.45844 8.05525 2.05658 8.78408 2.82401 9.29686C3.59144 9.80964 4.49369 10.0833 5.41667 10.0833C6.45305 10.0846 7.45977 9.73741 8.275 9.0975L10.2525 11.0808C10.3067 11.1355 10.3712 11.1789 10.4423 11.2085C10.5134 11.2381 10.5897 11.2534 10.6667 11.2534C10.7437 11.2534 10.8199 11.2381 10.891 11.2085C10.9621 11.1789 11.0266 11.1355 11.0808 11.0808C11.1355 11.0266 11.1789 10.9621 11.2085 10.891C11.2381 10.8199 11.2534 10.7437 11.2534 10.6667C11.2534 10.5897 11.2381 10.5134 11.2085 10.4423C11.1789 10.3712 11.1355 10.3067 11.0808 10.2525ZM1.91667 5.41667C1.91667 4.72443 2.12194 4.04774 2.50653 3.47217C2.89111 2.8966 3.43774 2.448 4.07728 2.18309C4.71682 1.91818 5.42055 1.84887 6.09948 1.98392C6.77842 2.11897 7.40206 2.45231 7.89154 2.9418C8.38103 3.43128 8.71437 4.05492 8.84942 4.73385C8.98447 5.41279 8.91515 6.11652 8.65025 6.75606C8.38534 7.3956 7.93674 7.94223 7.36116 8.32681C6.78559 8.7114 6.1089 8.91667 5.41667 8.91667C4.48841 8.91667 3.59817 8.54792 2.9418 7.89154C2.28542 7.23517 1.91667 6.34493 1.91667 5.41667Z" fill="#343333"/>
</svg>
